<svg height="64" preserveAspectRatio="none" viewBox="0 0 64 64" width="64" xmlns="http://www.w3.org/2000/svg" xmlns:xlink="http://www.w3.org/1999/xlink"><linearGradient id="a"><stop offset="0" stop-color="#fce2bc"/><stop offset=".2484848" stop-color="#ffa300"/><stop offset=".8666666" stop-color="#ffc800"/><stop offset="1" stop-color="#fc8700"/></linearGradient><linearGradient id="b" gradientUnits="userSpaceOnUse" x1="41.012695" x2="52.314018" xlink:href="#a" y1="35.025391" y2="59.261158"/><linearGradient id="c" gradientUnits="userSpaceOnUse" x1="12.709961" x2="23.4112" xlink:href="#a" y1="2.233887" y2="25.18277"/><path d="m45.0976563 33.1201172h3.7460937v2.8027344c2.6552734.0576172 4.3076172.6191406 5.7236328 1.2685547l-1.1503906 4.3359375c-1.0332031-.3828125-3.1269531-1.1796875-6.3134766-1.1796875-2.5371094 0-3.1865234.8261719-3.1865234 1.5917969 0 .9453125 1.59375 1.6523438 4.8974609 2.5078125 4.9560547 1.2109375 6.9033203 2.9804688 6.9033203 6.5205078 0 3.1865234-2.3310547 5.9296875-6.8740234 6.6083984v3.3037109h-3.7460938v-3.0976563c-2.6845703-.1181641-5.3398438-.8554688-6.8154297-1.7109375l1.1513672-4.3369141c1.8291016.9433594 4.3955078 1.59375 7.1982422 1.59375 2.09375 0 3.6582031-.53125 3.6582031-1.8007813 0-1.1210938-1.2099609-1.828125-4.2480469-2.5078125-4.2783203-.9726563-7.5234375-2.890625-7.5234375-6.4296875 0-3.2753906 2.2714844-5.8710938 6.5791016-6.5488281v-2.9208983z" fill="url(#b)"/><path d="m14.0654297 27.0371094v-5.3105469h-5.4882813v-2.5664063h5.4882813v-2.1533203h-5.4882813v-2.5673828h4.0429688l-5.8417969-9.4394531h6.3730469l2.2421875 4.9863281c.6484375 1.4150391 1.03125 2.5654297 1.5332031 3.8339844h.0292969c.53125-1.1796875.9726563-2.5068359 1.5644531-3.8339844l2.3007813-4.9863281h6.4003906l-6.4296875 9.4394531h4.1289063v2.5673828h-5.4863281v2.1533203h5.4863281v2.5664063h-5.4863281v5.3105469z" fill="url(#c)"/><g fill="#231815"><path d="m50.3339844 31.8339844c-.828125 0-1.5-.6713867-1.5-1.5 0-5.4013672-2.9082031-10.4370117-7.5908203-13.1425781-.7167969-.4145508-.9619141-1.3320313-.5478516-2.0493164.4160156-.7182617 1.3300781-.9624023 2.0498047-.5483398 5.6064453 3.2397461 9.0888672 9.2709961 9.0888672 15.7402344 0 .8286132-.671875 1.4999999-1.5 1.4999999z"/><path d="m41.7861328 22.4321289-8.1103515-8.796875 11.6738281-2.6259766z"/><path d="m22.0043945 49.6074219c-.2543945 0-.5126953-.0644531-.7490234-.2011719-5.6064453-3.2392578-9.0893555-9.2705078-9.0893555-15.7392578 0-.8286133.6713867-1.5 1.5-1.5s1.5.6713867 1.5 1.5c0 5.4003906 2.9082031 10.4365234 7.590332 13.1416016.7172852.4140625.9628906 1.3320313.5483398 2.0488281-.2778319.4814453-.7822265.75-1.3002929.75z"/><path d="m22.2138672 41.5673828 8.1103516 8.796875-11.6743165 2.6259766z"/></g></svg>